<svg xmlns="http://www.w3.org/2000/svg" viewBox="0 0 400 240" width="400" height="240">
  
  <defs>
    <linearGradient id="body" x1="0" y1="0" x2="0" y2="1">
      <stop offset="0%" stop-color="#2E6B41"/>
      <stop offset="55%" stop-color="#123420"/>
      <stop offset="100%" stop-color="#123420"/>
    </linearGradient>
    <linearGradient id="glass" x1="0" y1="0" x2="0" y2="1">
      <stop offset="0%" stop-color="#DCE9F5"/>
      <stop offset="100%" stop-color="#A9C3DD"/>
    </linearGradient>
    <radialGradient id="shadow" cx="50%" cy="50%" r="50%">
      <stop offset="0%" stop-color="#00000030"/>
      <stop offset="100%" stop-color="#00000000"/>
    </radialGradient>
  </defs>
  <rect width="400" height="240" fill="#EAF0F7"/>
  <rect x="0" y="190" width="400" height="8" fill="#D6E0EC"/>
  
  
    <ellipse cx="120" cy="207" rx="33" ry="6" fill="url(#shadow)"/>
    <circle cx="120" cy="178" r="25" fill="#1C222C"/>
    <circle cx="120" cy="178" r="15.5" fill="#8C97A6"/>
    <line x1="120" y1="178" x2="135.0" y2="178.0" stroke="#3A4250" stroke-width="2.5"/><line x1="120" y1="178" x2="127.5" y2="191.0" stroke="#3A4250" stroke-width="2.5"/><line x1="120" y1="178" x2="112.6" y2="191.0" stroke="#3A4250" stroke-width="2.5"/><line x1="120" y1="178" x2="105.0" y2="178.0" stroke="#3A4250" stroke-width="2.5"/><line x1="120" y1="178" x2="112.5" y2="165.0" stroke="#3A4250" stroke-width="2.5"/><line x1="120" y1="178" x2="127.6" y2="165.0" stroke="#3A4250" stroke-width="2.5"/>
    <circle cx="120" cy="178" r="4.5" fill="#2B313C"/>
    
    <ellipse cx="280" cy="207" rx="33" ry="6" fill="url(#shadow)"/>
    <circle cx="280" cy="178" r="25" fill="#1C222C"/>
    <circle cx="280" cy="178" r="15.5" fill="#8C97A6"/>
    <line x1="280" y1="178" x2="295.0" y2="178.0" stroke="#3A4250" stroke-width="2.5"/><line x1="280" y1="178" x2="287.5" y2="191.0" stroke="#3A4250" stroke-width="2.5"/><line x1="280" y1="178" x2="272.6" y2="191.0" stroke="#3A4250" stroke-width="2.5"/><line x1="280" y1="178" x2="265.0" y2="178.0" stroke="#3A4250" stroke-width="2.5"/><line x1="280" y1="178" x2="272.5" y2="165.0" stroke="#3A4250" stroke-width="2.5"/><line x1="280" y1="178" x2="287.6" y2="165.0" stroke="#3A4250" stroke-width="2.5"/>
    <circle cx="280" cy="178" r="4.5" fill="#2B313C"/>
    
  <path d="M 65 176 L 68 150 Q 70 128 95 122 L 118 92 Q 130 78 165 78 L 245 78 Q 275 78 288 96 L 305 122
           Q 328 128 330 150 L 332 176 Z" fill="url(#body)"/>
  <path d="M 122 118 L 132 96 Q 145 86 165 86 L 235 86 Q 258 86 268 98 L 280 118 L 272 138 L 130 138 Z"
        fill="url(#glass)"/>
  <line x1="200" y1="86" x2="200" y2="138" stroke="#0D2312" stroke-width="2.5"/>
  <rect x="68" y="154" width="12" height="7" rx="2" fill="#FFE9A8"/>
  <rect x="320" y="154" width="12" height="7" rx="2" fill="#C0392B"/>
  <line x1="70" y1="155" x2="330" y2="155" stroke="#00000018" stroke-width="1.5"/>
  <circle cx="112" cy="112" r="3" fill="#0D2312"/>

  <text x="200" y="228" font-family="Arial, sans-serif" font-size="14" font-weight="bold"
        fill="#1F4D2E" text-anchor="middle" letter-spacing="2.5">SUV</text>
</svg>